<svg xmlns="http://www.w3.org/2000/svg" viewBox="0 0 192 192" fill="none">
  <rect width="192" height="192" rx="48" fill="#071018" />
  <rect x="20" y="20" width="152" height="152" rx="40" fill="url(#bg)" />
  <path
    d="M55 129.5V63.5c0-4.142 3.358-7.5 7.5-7.5h35.622c2.068 0 4.047.855 5.465 2.362l33.378 35.5A7.5 7.5 0 0 1 139 99v30.5c0 4.142-3.358 7.5-7.5 7.5h-69c-4.142 0-7.5-3.358-7.5-7.5Z"
    fill="rgba(255,255,255,0.1)"
    stroke="rgba(255,255,255,0.22)"
    stroke-width="4"
  />
  <path
    d="M83 77c0-7.18 5.82-13 13-13s13 5.82 13 13v18.5c0 7.18-5.82 13-13 13s-13-5.82-13-13V77Z"
    fill="url(#accent)"
  />
  <path
    d="M68 114.5c7.25 8.333 16.583 12.5 28 12.5 11.417 0 20.75-4.167 28-12.5"
    stroke="#FFF6F2"
    stroke-width="8"
    stroke-linecap="round"
  />
  <circle cx="127" cy="64" r="11" fill="#FF8A5B" />
  <defs>
    <linearGradient id="bg" x1="24" y1="24" x2="176" y2="176" gradientUnits="userSpaceOnUse">
      <stop stop-color="#111C29" />
      <stop offset="1" stop-color="#1E1524" />
    </linearGradient>
    <linearGradient id="accent" x1="86" y1="66" x2="122" y2="117" gradientUnits="userSpaceOnUse">
      <stop stop-color="#FF6A3D" />
      <stop offset="1" stop-color="#FF4F9A" />
    </linearGradient>
  </defs>
</svg>
